<mxfile host="app.diagrams.net" modified="2023-05-08T02:54:36.958Z" agent="Mozilla/5.0 (Windows NT 10.0; Win64; x64) AppleWebKit/537.36 (KHTML, like Gecko) Chrome/113.0.0.0 Safari/537.36 Edg/113.0.1774.35" etag="AHC069sTufocmvlmcBBr" version="21.2.9" type="device">
  <diagram id="C5RBs43oDa-KdzZeNtuy" name="Page-1">
    <mxGraphModel dx="1619" dy="1138" grid="1" gridSize="10" guides="1" tooltips="1" connect="1" arrows="1" fold="1" page="1" pageScale="1" pageWidth="827" pageHeight="1169" math="0" shadow="0">
      <root>
        <mxCell id="WIyWlLk6GJQsqaUBKTNV-0" />
        <mxCell id="WIyWlLk6GJQsqaUBKTNV-1" parent="WIyWlLk6GJQsqaUBKTNV-0" />
        <mxCell id="qtvFPrEo8Z20x6_86cqU-0" value="Customer logs into webpage to place order." style="rounded=0;whiteSpace=wrap;html=1;" vertex="1" parent="WIyWlLk6GJQsqaUBKTNV-1">
          <mxGeometry x="-620" y="120" width="120" height="60" as="geometry" />
        </mxCell>
        <mxCell id="qtvFPrEo8Z20x6_86cqU-2" value="" style="endArrow=classic;startArrow=classic;html=1;rounded=0;entryX=0.5;entryY=1;entryDx=0;entryDy=0;" edge="1" parent="WIyWlLk6GJQsqaUBKTNV-1" target="qtvFPrEo8Z20x6_86cqU-0">
          <mxGeometry width="50" height="50" relative="1" as="geometry">
            <mxPoint x="-560" y="240" as="sourcePoint" />
            <mxPoint x="-200" y="550" as="targetPoint" />
          </mxGeometry>
        </mxCell>
        <mxCell id="qtvFPrEo8Z20x6_86cqU-3" value="Order goes across the internet." style="rounded=0;whiteSpace=wrap;html=1;" vertex="1" parent="WIyWlLk6GJQsqaUBKTNV-1">
          <mxGeometry x="-620" y="240" width="120" height="60" as="geometry" />
        </mxCell>
        <mxCell id="qtvFPrEo8Z20x6_86cqU-4" value="" style="endArrow=classic;startArrow=classic;html=1;rounded=0;entryX=0.5;entryY=1;entryDx=0;entryDy=0;" edge="1" parent="WIyWlLk6GJQsqaUBKTNV-1" target="qtvFPrEo8Z20x6_86cqU-3">
          <mxGeometry width="50" height="50" relative="1" as="geometry">
            <mxPoint x="-560" y="360" as="sourcePoint" />
            <mxPoint x="-200" y="540" as="targetPoint" />
          </mxGeometry>
        </mxCell>
        <mxCell id="qtvFPrEo8Z20x6_86cqU-6" value="Business receives internet and prepares it." style="rounded=0;whiteSpace=wrap;html=1;" vertex="1" parent="WIyWlLk6GJQsqaUBKTNV-1">
          <mxGeometry x="-620" y="360" width="120" height="60" as="geometry" />
        </mxCell>
        <mxCell id="qtvFPrEo8Z20x6_86cqU-8" value="Use-Case" style="text;strokeColor=none;align=center;fillColor=none;html=1;verticalAlign=middle;whiteSpace=wrap;rounded=0;" vertex="1" parent="WIyWlLk6GJQsqaUBKTNV-1">
          <mxGeometry x="-590" y="85" width="60" height="30" as="geometry" />
        </mxCell>
        <mxCell id="qtvFPrEo8Z20x6_86cqU-9" value="Use-Case is very straight forward and focus on one process." style="text;strokeColor=none;align=center;fillColor=none;html=1;verticalAlign=middle;whiteSpace=wrap;rounded=0;" vertex="1" parent="WIyWlLk6GJQsqaUBKTNV-1">
          <mxGeometry x="-590" y="470" width="60" height="30" as="geometry" />
        </mxCell>
        <mxCell id="qtvFPrEo8Z20x6_86cqU-10" value="Architecture-Centric" style="text;strokeColor=none;align=center;fillColor=none;html=1;verticalAlign=middle;whiteSpace=wrap;rounded=0;" vertex="1" parent="WIyWlLk6GJQsqaUBKTNV-1">
          <mxGeometry x="-290" y="85" width="60" height="30" as="geometry" />
        </mxCell>
        <mxCell id="qtvFPrEo8Z20x6_86cqU-11" value="Functional" style="rounded=0;whiteSpace=wrap;html=1;" vertex="1" parent="WIyWlLk6GJQsqaUBKTNV-1">
          <mxGeometry x="-460" y="170" width="120" height="60" as="geometry" />
        </mxCell>
        <mxCell id="qtvFPrEo8Z20x6_86cqU-13" style="edgeStyle=orthogonalEdgeStyle;rounded=0;orthogonalLoop=1;jettySize=auto;html=1;exitX=0.75;exitY=0;exitDx=0;exitDy=0;entryX=1;entryY=0.25;entryDx=0;entryDy=0;" edge="1" parent="WIyWlLk6GJQsqaUBKTNV-1" source="qtvFPrEo8Z20x6_86cqU-10" target="qtvFPrEo8Z20x6_86cqU-10">
          <mxGeometry relative="1" as="geometry" />
        </mxCell>
        <mxCell id="qtvFPrEo8Z20x6_86cqU-15" value="Static" style="rounded=0;whiteSpace=wrap;html=1;" vertex="1" parent="WIyWlLk6GJQsqaUBKTNV-1">
          <mxGeometry x="-320" y="170" width="120" height="60" as="geometry" />
        </mxCell>
        <mxCell id="qtvFPrEo8Z20x6_86cqU-16" value="Dynamic" style="rounded=0;whiteSpace=wrap;html=1;" vertex="1" parent="WIyWlLk6GJQsqaUBKTNV-1">
          <mxGeometry x="-180" y="170" width="120" height="60" as="geometry" />
        </mxCell>
        <mxCell id="qtvFPrEo8Z20x6_86cqU-17" value="" style="endArrow=classic;startArrow=classic;html=1;rounded=0;entryX=0.5;entryY=1;entryDx=0;entryDy=0;exitX=0.45;exitY=0;exitDx=0;exitDy=0;exitPerimeter=0;" edge="1" parent="WIyWlLk6GJQsqaUBKTNV-1" source="qtvFPrEo8Z20x6_86cqU-11" target="qtvFPrEo8Z20x6_86cqU-10">
          <mxGeometry width="50" height="50" relative="1" as="geometry">
            <mxPoint x="-250" y="520" as="sourcePoint" />
            <mxPoint x="-200" y="470" as="targetPoint" />
          </mxGeometry>
        </mxCell>
        <mxCell id="qtvFPrEo8Z20x6_86cqU-18" value="" style="endArrow=classic;startArrow=classic;html=1;rounded=0;entryX=0.5;entryY=1;entryDx=0;entryDy=0;exitX=0.5;exitY=0;exitDx=0;exitDy=0;" edge="1" parent="WIyWlLk6GJQsqaUBKTNV-1" source="qtvFPrEo8Z20x6_86cqU-15" target="qtvFPrEo8Z20x6_86cqU-10">
          <mxGeometry width="50" height="50" relative="1" as="geometry">
            <mxPoint x="-260" y="150" as="sourcePoint" />
            <mxPoint x="-200" y="470" as="targetPoint" />
          </mxGeometry>
        </mxCell>
        <mxCell id="qtvFPrEo8Z20x6_86cqU-20" value="" style="endArrow=classic;startArrow=classic;html=1;rounded=0;exitX=0.5;exitY=0;exitDx=0;exitDy=0;entryX=0.5;entryY=1;entryDx=0;entryDy=0;" edge="1" parent="WIyWlLk6GJQsqaUBKTNV-1" source="qtvFPrEo8Z20x6_86cqU-16" target="qtvFPrEo8Z20x6_86cqU-10">
          <mxGeometry width="50" height="50" relative="1" as="geometry">
            <mxPoint x="-250" y="520" as="sourcePoint" />
            <mxPoint x="-260" y="120" as="targetPoint" />
          </mxGeometry>
        </mxCell>
        <mxCell id="qtvFPrEo8Z20x6_86cqU-21" value="Behavior of system from user POV." style="ellipse;whiteSpace=wrap;html=1;" vertex="1" parent="WIyWlLk6GJQsqaUBKTNV-1">
          <mxGeometry x="-460" y="260" width="120" height="80" as="geometry" />
        </mxCell>
        <mxCell id="qtvFPrEo8Z20x6_86cqU-22" value="" style="endArrow=classic;startArrow=classic;html=1;rounded=0;entryX=0.5;entryY=1;entryDx=0;entryDy=0;" edge="1" parent="WIyWlLk6GJQsqaUBKTNV-1" source="qtvFPrEo8Z20x6_86cqU-21" target="qtvFPrEo8Z20x6_86cqU-11">
          <mxGeometry width="50" height="50" relative="1" as="geometry">
            <mxPoint x="-250" y="520" as="sourcePoint" />
            <mxPoint x="-200" y="470" as="targetPoint" />
          </mxGeometry>
        </mxCell>
        <mxCell id="qtvFPrEo8Z20x6_86cqU-23" value="Describes in terms of class, attributes, or a form of cathegory" style="ellipse;whiteSpace=wrap;html=1;" vertex="1" parent="WIyWlLk6GJQsqaUBKTNV-1">
          <mxGeometry x="-320" y="280" width="120" height="80" as="geometry" />
        </mxCell>
        <mxCell id="qtvFPrEo8Z20x6_86cqU-24" value="Describes by stating the terms passed along nodes, also states the change." style="ellipse;whiteSpace=wrap;html=1;" vertex="1" parent="WIyWlLk6GJQsqaUBKTNV-1">
          <mxGeometry x="-180" y="260" width="120" height="80" as="geometry" />
        </mxCell>
        <mxCell id="qtvFPrEo8Z20x6_86cqU-25" value="" style="endArrow=classic;startArrow=classic;html=1;rounded=0;entryX=0.5;entryY=1;entryDx=0;entryDy=0;" edge="1" parent="WIyWlLk6GJQsqaUBKTNV-1" target="qtvFPrEo8Z20x6_86cqU-15">
          <mxGeometry width="50" height="50" relative="1" as="geometry">
            <mxPoint x="-260" y="280" as="sourcePoint" />
            <mxPoint x="-200" y="460" as="targetPoint" />
          </mxGeometry>
        </mxCell>
        <mxCell id="qtvFPrEo8Z20x6_86cqU-26" value="" style="endArrow=classic;startArrow=classic;html=1;rounded=0;entryX=0.5;entryY=1;entryDx=0;entryDy=0;" edge="1" parent="WIyWlLk6GJQsqaUBKTNV-1" source="qtvFPrEo8Z20x6_86cqU-24" target="qtvFPrEo8Z20x6_86cqU-16">
          <mxGeometry width="50" height="50" relative="1" as="geometry">
            <mxPoint x="-250" y="510" as="sourcePoint" />
            <mxPoint x="-200" y="460" as="targetPoint" />
          </mxGeometry>
        </mxCell>
        <mxCell id="qtvFPrEo8Z20x6_86cqU-27" value="Iterative and Incremental" style="text;strokeColor=none;align=center;fillColor=none;html=1;verticalAlign=middle;whiteSpace=wrap;rounded=0;" vertex="1" parent="WIyWlLk6GJQsqaUBKTNV-1">
          <mxGeometry x="-290" y="520" width="60" height="30" as="geometry" />
        </mxCell>
        <mxCell id="qtvFPrEo8Z20x6_86cqU-28" value="Build each architectural view little by little." style="rounded=0;whiteSpace=wrap;html=1;" vertex="1" parent="WIyWlLk6GJQsqaUBKTNV-1">
          <mxGeometry x="-320" y="570" width="120" height="60" as="geometry" />
        </mxCell>
        <mxCell id="qtvFPrEo8Z20x6_86cqU-29" value="Functional" style="rounded=0;whiteSpace=wrap;html=1;" vertex="1" parent="WIyWlLk6GJQsqaUBKTNV-1">
          <mxGeometry x="-460" y="660" width="120" height="60" as="geometry" />
        </mxCell>
        <mxCell id="qtvFPrEo8Z20x6_86cqU-30" value="Static" style="rounded=0;whiteSpace=wrap;html=1;" vertex="1" parent="WIyWlLk6GJQsqaUBKTNV-1">
          <mxGeometry x="-320" y="660" width="120" height="60" as="geometry" />
        </mxCell>
        <mxCell id="qtvFPrEo8Z20x6_86cqU-32" value="Dynamic" style="rounded=0;whiteSpace=wrap;html=1;" vertex="1" parent="WIyWlLk6GJQsqaUBKTNV-1">
          <mxGeometry x="-180" y="660" width="120" height="60" as="geometry" />
        </mxCell>
        <mxCell id="qtvFPrEo8Z20x6_86cqU-34" value="" style="strokeWidth=2;html=1;shape=mxgraph.flowchart.annotation_1;align=left;pointerEvents=1;direction=north;" vertex="1" parent="WIyWlLk6GJQsqaUBKTNV-1">
          <mxGeometry x="-400" y="720" width="140" height="50" as="geometry" />
        </mxCell>
        <mxCell id="qtvFPrEo8Z20x6_86cqU-35" value="" style="strokeWidth=2;html=1;shape=mxgraph.flowchart.annotation_1;align=left;pointerEvents=1;direction=north;" vertex="1" parent="WIyWlLk6GJQsqaUBKTNV-1">
          <mxGeometry x="-260" y="720" width="140" height="50" as="geometry" />
        </mxCell>
        <mxCell id="qtvFPrEo8Z20x6_86cqU-36" value="" style="endArrow=classic;startArrow=classic;html=1;rounded=0;" edge="1" parent="WIyWlLk6GJQsqaUBKTNV-1">
          <mxGeometry width="50" height="50" relative="1" as="geometry">
            <mxPoint x="-380" y="790" as="sourcePoint" />
            <mxPoint x="-290" y="790" as="targetPoint" />
          </mxGeometry>
        </mxCell>
        <mxCell id="qtvFPrEo8Z20x6_86cqU-38" value="" style="endArrow=classic;startArrow=classic;html=1;rounded=0;" edge="1" parent="WIyWlLk6GJQsqaUBKTNV-1">
          <mxGeometry width="50" height="50" relative="1" as="geometry">
            <mxPoint x="-230" y="790" as="sourcePoint" />
            <mxPoint x="-140" y="790" as="targetPoint" />
          </mxGeometry>
        </mxCell>
        <mxCell id="qtvFPrEo8Z20x6_86cqU-39" value="" style="endArrow=classic;startArrow=classic;html=1;rounded=0;" edge="1" parent="WIyWlLk6GJQsqaUBKTNV-1">
          <mxGeometry width="50" height="50" relative="1" as="geometry">
            <mxPoint x="-380" y="810" as="sourcePoint" />
            <mxPoint x="-140" y="810" as="targetPoint" />
          </mxGeometry>
        </mxCell>
      </root>
    </mxGraphModel>
  </diagram>
</mxfile>
